<svg width="45" height="43" viewBox="0 0 45 43" fill="none" xmlns="http://www.w3.org/2000/svg">
<path d="M12.8684 37.5126H32.131C33.0482 37.5126 33.5068 37.9573 33.5068 38.8469C33.5068 39.7365 33.0482 40.1813 32.131 40.1813H12.8684C11.9512 40.1813 11.4926 39.7365 11.4926 38.8469C11.4926 37.9573 11.9512 37.5126 12.8684 37.5126Z" fill="#D7D8F0"/>
<path d="M34.8827 17.4969C34.8827 14.3119 33.5781 11.2572 31.2558 9.00503C28.9336 6.75284 25.7839 5.48757 22.4997 5.48757C19.2155 5.48757 16.0658 6.75284 13.7436 9.00503C11.4213 11.2572 10.1167 14.3119 10.1167 17.4969C10.1167 22.4235 14.181 28.8445 22.4997 36.5358C30.8183 28.8445 34.8827 22.4235 34.8827 17.4969ZM22.4997 40.1813C12.4089 31.2864 7.36487 23.7231 7.36487 17.4969C7.36487 13.6041 8.95943 9.87062 11.7978 7.11794C14.6361 4.36526 18.4857 2.81882 22.4997 2.81882C26.5137 2.81882 30.3633 4.36526 33.2016 7.11794C36.04 9.87062 37.6345 13.6041 37.6345 17.4969C37.6345 23.7231 32.5905 31.2864 22.4997 40.1813Z" fill="#D7D8F0"/>
<path d="M22.4997 21.5C23.5944 21.5 24.6443 21.0783 25.4184 20.3276C26.1925 19.5768 26.6274 18.5586 26.6274 17.4969C26.6274 16.4352 26.1925 15.417 25.4184 14.6663C24.6443 13.9155 23.5944 13.4938 22.4997 13.4938C21.405 13.4938 20.3551 13.9155 19.581 14.6663C18.8069 15.417 18.372 16.4352 18.372 17.4969C18.372 18.5586 18.8069 19.5768 19.581 20.3276C20.3551 21.0783 21.405 21.5 22.4997 21.5ZM22.4997 24.1688C20.6752 24.1688 18.9253 23.4659 17.6352 22.2146C16.345 20.9634 15.6202 19.2664 15.6202 17.4969C15.6202 15.7274 16.345 14.0304 17.6352 12.7792C18.9253 11.528 20.6752 10.825 22.4997 10.825C24.3243 10.825 26.0741 11.528 27.3642 12.7792C28.6544 14.0304 29.3792 15.7274 29.3792 17.4969C29.3792 19.2664 28.6544 20.9634 27.3642 22.2146C26.0741 23.4659 24.3243 24.1688 22.4997 24.1688Z" fill="#D7D8F0"/>
</svg>
